# xmcd
#
# Track frame offsets: 
#        150
#        16312
#        35363
#        49250
#        69934
#        78710
#        95423
#        110825
#        126029
#        146565
#
# Disc length: 2190 seconds
#
# Revision: 4
# Processed by: cddbd v1.5.2PL0 Copyright (c) Steve Scherf et al.
# Submitted via: ExactAudioCopy v0.95b4
#
DISCID=86088c0a
DTITLE=Sakari Kuosmanen - Ent‰ jos
DYEAR=2003
DGENRE=Suomi Pop
TTITLE0=Ent‰ jos
TTITLE1=Suru tuli k‰ym‰‰n
TTITLE2=Sido mut
TTITLE3=Kolkutin oveasi
TTITLE4=Kehtolaulu
TTITLE5=Yli hiljaisen tyvenen veen
TTITLE6=Paljonko on tarpeeksi
TTITLE7=Kultainen pistin
TTITLE8=Syd‰nmaa
TTITLE9=Kaikki me
EXTD=YEAR: 2003
EXTT0=
EXTT1=
EXTT2=
EXTT3=
EXTT4=
EXTT5=
EXTT6=
EXTT7=
EXTT8=
EXTT9=
PLAYORDER=
